<svg width="3810" height="1200" viewBox="0 0 3810 1200" fill="none" xmlns="http://www.w3.org/2000/svg">
<path d="M1514.57 832C1400.17 832 1317.77 739.2 1317.77 605.6C1317.77 474.4 1398.57 383.2 1511.37 383.2C1571.37 383.2 1620.97 408 1650.57 448V220H1744.97V820H1668.97L1660.17 744.8C1636.17 798.4 1583.37 832 1514.57 832ZM1532.17 752C1601.77 752 1650.57 691.2 1650.57 604.8C1650.57 520.8 1602.57 462.4 1533.77 462.4C1463.37 462.4 1414.57 521.6 1414.57 606.4C1414.57 692 1462.57 752 1532.17 752ZM1892.91 980H1816.11V900H1892.91C1928.11 900 1947.31 887.2 1955.31 864.8L1972.11 820H1954.51L1786.51 396H1888.11L2009.71 717.6L2128.91 396H2227.31L2042.51 892.8C2020.91 949.6 1976.11 980 1892.91 980Z" fill="black"/>
<path d="M287.525 832C140.325 832 41.925 758.4 34.725 647.2H133.125C141.925 708 197.925 746.4 287.525 746.4C360.325 746.4 398.725 718.4 398.725 671.2C398.725 627.2 364.325 609.6 309.925 592.8L218.725 565.6C153.125 545.6 50.725 516.8 50.725 407.2C50.725 315.2 126.725 248 250.725 248C385.925 248 472.325 320.8 479.525 439.2H381.925C377.925 376 331.525 333.6 247.525 333.6C185.925 333.6 145.925 359.2 145.925 402.4C145.925 451.2 194.725 463.2 249.125 480.8L333.925 507.2C413.125 532 496.325 560.8 496.325 666.4C496.325 768 415.525 832 287.525 832ZM796.563 820H742.163C650.163 820 600.563 774.4 600.563 690.4V476H526.163V396H600.563V251.2H694.963V396H804.563V476H694.963V684C694.963 720 713.363 740 748.563 740H796.563V820Z" fill="black"/>
<path d="M1026.19 832C925.388 832 866.988 768.8 866.988 676.8V396H961.388V672.8C961.388 720.8 994.988 748.8 1045.39 748.8C1110.19 748.8 1148.59 706.4 1149.39 652V396H1243.79V820H1167.79L1160.59 758.4C1135.79 804 1085.39 832 1026.19 832Z" fill="#FFBE0B"/>
<path d="M3039.48 820H2945.08V396H3021.08L3029.08 458.4C3055.48 414.4 3109.08 383.2 3172.28 383.2C3262.68 383.2 3321.88 444 3321.88 539.2V820H3227.48V544C3227.48 496.8 3196.28 465.6 3143.48 465.6C3081.88 465.6 3040.28 508 3039.48 563.2V820ZM3589.86 832C3460.26 832 3371.46 739.2 3371.46 609.6C3371.46 469.6 3463.46 383.2 3581.86 383.2C3701.86 383.2 3781.86 467.2 3784.26 604.8V627.2H3465.86C3472.26 701.6 3518.66 752 3590.66 752C3639.46 752 3676.26 728 3690.66 685.6H3782.66C3761.06 776.8 3689.86 832 3589.86 832ZM3469.86 560.8H3686.66C3674.66 500 3637.06 463.2 3581.86 463.2C3525.86 463.2 3484.26 500 3469.86 560.8Z" fill="black"/>
<path d="M2800.39 339.2C2765.99 339.2 2739.59 312 2739.59 277.6C2739.59 243.2 2765.99 216.8 2800.39 216.8C2835.59 216.8 2861.19 243.2 2861.19 277.6C2861.19 312 2835.59 339.2 2800.39 339.2ZM2847.59 820H2753.19V396H2847.59V820Z" fill="black"/>
<path d="M2863 278C2863 312.242 2835.24 340 2801 340C2766.76 340 2739 312.242 2739 278C2739 243.758 2766.76 216 2801 216C2835.24 216 2863 243.758 2863 278Z" fill="#FFBE0B"/>
<path d="M2678.3 820H2296.7V260H2392.7V733.6H2678.3V820Z" fill="#43BCCD"/>
</svg>
